# xmcd
#
# Track frame offsets: 
#        150
#        13018
#        25167
#        41163
#        53769
#        68071
#        79234
#        95888
#        109618
#        124300
#        139885
#        153233
#        165369
#        176920
#        189458
#        202728
#        216270
#        229001
#        241569
#        254736
#        270886
#        283208
#        295087
#        307355
#        319138
#        332237
#        341882
#
# Disc length: 4742 seconds
#
# Revision: 0
# Processed by: cddbd v1.5.2PL0 Copyright (c) Steve Scherf et al.
# Submitted via: ExactAudioCopyFreeDBPlugin 1.0
#
DISCID=9612841b
DTITLE=Various Artist - VA - Really the Blues - Disc 24
DYEAR=1900
DGENRE=40s
TTITLE0=Big Jay McNeely - Deacon Hop
TTITLE1=Ralph Willis - Boar Hog Blues
TTITLE2=John Lee Hooker - Grievin' Blues
TTITLE3=Bull Moose Jackson - Bowlegged Woman
TTITLE4=Muddy Waters - I Feel Like Going Home
TTITLE5=Leroy Foster - Locked Out Boogie
TTITLE6=Tex Williams - Careless Love
TTITLE7=Detroit Count - Hastings Street Woogie Man
TTITLE8=Reverend A. Johnson - God Don't Like It
TTITLE9=John Lee Hooker - Like a Woman
TTITLE10=Machito - Babarabatiri
TTITLE11=T-Bone Walker - She's My Old Time Used to Be
TTITLE12=Brew Moore - Lestorian Mode
TTITLE13=Ivory Joe Hunter - I Quit My Pretty Mama
TTITLE14=Moon Mullican - I'm Going to Move Home Bye and Bye
TTITLE15=Jerry Byrd - Steelin' the Blues
TTITLE16=Delmore Brothers - Blues Stay Away from Me
TTITLE17=Striders - Baby Don't You Cry
TTITLE18=Jesse Thomas - Gonna Write You a Letter
TTITLE19=Charlie Parker - Now's the Time
TTITLE20=B.B. King - Miss Martha King
TTITLE21=Wynonie Harris - Sittin' On It All the Time
TTITLE22=Walter Brown with Harold Ashby - You Better Leave My Gal Alon
TTITLE22=e
TTITLE23=Illinois Jacquet - Blue Satin
TTITLE24=Dan Pickett - Lemon Man
TTITLE25=Lowell Fulson - Mama Bring Your Clothes Back Home
TTITLE26=Tangle Eye - Tangle Eye Blues
EXTD=
EXTT0=
EXTT1=
EXTT2=
EXTT3=
EXTT4=
EXTT5=
EXTT6=
EXTT7=
EXTT8=
EXTT9=
EXTT10=
EXTT11=
EXTT12=
EXTT13=
EXTT14=
EXTT15=
EXTT16=
EXTT17=
EXTT18=
EXTT19=
EXTT20=
EXTT21=
EXTT22=
EXTT23=
EXTT24=
EXTT25=
EXTT26=
PLAYORDER=
